<?xml version="1.0" standalone="no"?>
<!DOCTYPE svg PUBLIC "-//W3C//DTD SVG 1.1//EN" "http://www.w3.org/Graphics/SVG/1.1/DTD/svg11.dtd" >
<svg xmlns="http://www.w3.org/2000/svg" xmlns:xlink="http://www.w3.org/1999/xlink" version="1.1">
<metadata>
Created by FontForge 20161013 at Mon Mar 13 13:46:02 2017
 By ,,,
Copyright 2012-2017, Damien Gautier, 205TF. All rights reserved.
</metadata>
<defs>
<font id="MaaxTrial-Light" horiz-adv-x="290" >
  <font-face 
    font-family="Maax Trial Light"
    font-weight="250"
    font-stretch="normal"
    units-per-em="1000"
    panose-1="2 0 0 0 0 0 0 0 0 0"
    ascent="750"
    descent="-250"
    x-height="490"
    cap-height="700"
    bbox="-53 -205 1011 872"
    underline-thickness="47"
    underline-position="-262"
    unicode-range="U+0020-2212"
  />
<missing-glyph horiz-adv-x="649" 
d="M323 202q13 0 21.5 -9t8.5 -22q0 -14 -8.5 -23t-21.5 -9t-22 9t-9 23q0 13 9 22t22 9zM332 153h8l-9 13q8 3 8 12q0 12 -13 12h-17v-37h8v12h7zM175 400q7 -12 3 -25t-16 -21q-30 -16 -47 12q-15 28 13 46q13 8 26.5 4.5t20.5 -16.5zM324 184q8 0 8 -6q0 -7 -8 -7h-7v13
h7zM290 412q19 12 42 -6l-29 -92q-7 7 -15 20q-33 58 2 78zM344 394q10 -12 14 -20q32 -57 -1 -78q-21 -11 -41 6zM324 684l285 -164v-328l-285 -164l-284 164v328zM338 561v-75h8v34h36v8h-36v25h39v8h-47zM260 561v-8h23v-67h8v67h24v8h-55zM157 259l89 51l-8 15l-68 -40
l20 69q11 35 -1 55q-10 18 -30 23t-39 -6q-18 -11 -23.5 -30.5t4.5 -37.5t29.5 -23.5t35.5 4.5l4 3l-20 -70zM323 130q17 0 28.5 12t11.5 29t-11.5 28.5t-28.5 11.5t-28.5 -11.5t-11.5 -28.5t11.5 -29t28.5 -12zM365 282q25 15 25 45t-17 56q-17 30 -41.5 43.5t-49.5 -0.5
t-25.5 -44t16.5 -56q17 -30 42 -44t50 0zM523 281q23 13 28.5 35.5t-6.5 39.5q-11 21 -32.5 25.5t-37.5 -6.5q-17 -10 -23 -27l-26 46l63 37l-8 14l-78 -45l47 -82l14 8q-4 22 18 34q13 8 27 4.5t22 -16.5q8 -15 3.5 -29.5t-18.5 -22.5q-22 -12 -43 -1l-5 -17q30 -12 55 3z
" />
    <glyph glyph-name=".notdef" horiz-adv-x="649" 
d="M323 202q13 0 21.5 -9t8.5 -22q0 -14 -8.5 -23t-21.5 -9t-22 9t-9 23q0 13 9 22t22 9zM332 153h8l-9 13q8 3 8 12q0 12 -13 12h-17v-37h8v12h7zM175 400q7 -12 3 -25t-16 -21q-30 -16 -47 12q-15 28 13 46q13 8 26.5 4.5t20.5 -16.5zM324 184q8 0 8 -6q0 -7 -8 -7h-7v13
h7zM290 412q19 12 42 -6l-29 -92q-7 7 -15 20q-33 58 2 78zM344 394q10 -12 14 -20q32 -57 -1 -78q-21 -11 -41 6zM324 684l285 -164v-328l-285 -164l-284 164v328zM338 561v-75h8v34h36v8h-36v25h39v8h-47zM260 561v-8h23v-67h8v67h24v8h-55zM157 259l89 51l-8 15l-68 -40
l20 69q11 35 -1 55q-10 18 -30 23t-39 -6q-18 -11 -23.5 -30.5t4.5 -37.5t29.5 -23.5t35.5 4.5l4 3l-20 -70zM323 130q17 0 28.5 12t11.5 29t-11.5 28.5t-28.5 11.5t-28.5 -11.5t-11.5 -28.5t11.5 -29t28.5 -12zM365 282q25 15 25 45t-17 56q-17 30 -41.5 43.5t-49.5 -0.5
t-25.5 -44t16.5 -56q17 -30 42 -44t50 0zM523 281q23 13 28.5 35.5t-6.5 39.5q-11 21 -32.5 25.5t-37.5 -6.5q-17 -10 -23 -27l-26 46l63 37l-8 14l-78 -45l47 -82l14 8q-4 22 18 34q13 8 27 4.5t22 -16.5q8 -15 3.5 -29.5t-18.5 -22.5q-22 -12 -43 -1l-5 -17q30 -12 55 3z
" />
    <glyph glyph-name=".null" horiz-adv-x="0" 
 />
    <glyph glyph-name="nonmarkingreturn" horiz-adv-x="333" 
 />
    <glyph glyph-name="NULL" horiz-adv-x="0" 
 />
    <glyph glyph-name="NULL" horiz-adv-x="0" 
 />
    <glyph glyph-name="space" unicode=" " 
 />
    <glyph glyph-name="exclam" unicode="!" 
d="M121 210v491h48v-491h-48zM146 -11q-22 0 -36.5 15t-14.5 36q0 20 15 34.5t36 14.5q20 0 35 -14.5t15 -34.5q0 -21 -15 -36t-35 -15z" />
    <glyph glyph-name="quotedbl" unicode="&#x22;" horiz-adv-x="474" 
d="M303 700h52v-245h-52v245zM119 700h52v-245h-52v245z" />
    <glyph glyph-name="percent" unicode="%" horiz-adv-x="742" 
d="M210 475q-50 0 -85 34.5t-35 83.5q0 50 35 84.5t85 34.5t84.5 -35t34.5 -84t-35 -83.5t-84 -34.5zM131 0l428 701h51l-428 -701h-51zM209 672q-31 0 -53 -21.5t-22 -57.5q0 -35 22 -56.5t53 -21.5t53.5 21.5t22.5 56.5t-22.5 57t-53.5 22zM533 -10q-50 0 -85 34.5
t-35 83.5q0 50 35 84.5t85 34.5q49 0 84 -34.5t35 -84.5q0 -49 -35 -83.5t-84 -34.5zM532 187q-31 0 -53 -21.5t-22 -57.5q0 -35 22 -56.5t53 -21.5t53.5 21.5t22.5 56.5t-22.5 57t-53.5 22z" />
    <glyph glyph-name="ampersand" unicode="&#x26;" horiz-adv-x="685" 
d="M314 665q-50 0 -79.5 -27t-29.5 -70q0 -53 54 -117l27 -36l50 29q90 51 90 117q0 45 -31.5 74.5t-80.5 29.5zM116 185q0 -58 46.5 -104.5t125.5 -46.5q92 0 169 88l-184 236l-69 -37q-88 -46 -88 -136zM552 0l-66 83q-88 -94 -199 -94q-57 0 -101 18.5t-68 48.5t-36 62
t-12 64q0 123 121 185l54 28q-50 63 -69 99.5t-19 77.5q0 62 43.5 101t117.5 39q73 0 115.5 -42t42.5 -106q0 -46 -27 -83.5t-68 -62.5l-64 -38l172 -224q61 92 84 181h52q-30 -114 -105 -219l91 -118h-59z" />
    <glyph glyph-name="parenleft" unicode="(" horiz-adv-x="397" 
d="M347 695q-189 -200 -189 -436q0 -124 46 -229t142 -205l-33 -30q-203 203 -203 464q0 260 204 466z" />
    <glyph glyph-name="parenright" unicode=")" horiz-adv-x="397" 
d="M51 -175q96 100 142 205t46 229q0 236 -189 436l33 30q204 -206 204 -466q0 -261 -203 -464z" />
    <glyph glyph-name="asterisk" unicode="*" horiz-adv-x="401" 
d="M313 491l-36 -27l-77 106l-77 -107l-36 27l77 106l-124 34l12 43l125 -35v131h46v-131l125 35l13 -43l-125 -34z" />
    <glyph glyph-name="plus" unicode="+" horiz-adv-x="631" 
d="M71 225v43h219v222h47v-222h223v-43h-223v-225h-47v225h-219z" />
    <glyph glyph-name="comma" unicode="," 
d="M103 -125h-59l98 239h70z" />
    <glyph glyph-name="hyphen" unicode="-" 
d="M270 233h-250v59h250v-59z" />
    <glyph glyph-name="period" unicode="." 
d="M144 -11q-21 0 -36.5 15t-15.5 36q0 22 15.5 37.5t36.5 15.5q22 0 38 -15.5t16 -37.5q0 -21 -16 -36t-38 -15z" />
    <glyph glyph-name="zero" unicode="0" horiz-adv-x="615" 
d="M307 -11q-63 0 -111.5 30.5t-77 82.5t-42.5 115t-14 133q0 97 24 176t81 132.5t140 53.5q82 0 139.5 -53.5t82 -133t24.5 -175.5q0 -95 -24.5 -174.5t-82 -133t-139.5 -53.5zM307 39q93 0 144 85.5t51 225.5q0 142 -51 227t-144 85t-143.5 -85t-50.5 -227
q0 -141 50.5 -226t143.5 -85z" />
    <glyph glyph-name="one" unicode="1" horiz-adv-x="502" 
d="M60 50h186v564q-70 -54 -186 -62v50q141 10 187 99h49v-651h176v-50h-412v50z" />
    <glyph glyph-name="two" unicode="2" horiz-adv-x="547" 
d="M121 50h378v-50h-434v22q0 99 49 172t176 133l19 9q69 33 106 72t37 105q0 70 -46.5 109.5t-120.5 39.5q-115 0 -177 -117l-43 29q79 138 219 138q91 0 154.5 -51.5t63.5 -149.5q0 -138 -162 -215l-59 -28q-73 -35 -114.5 -91.5t-45.5 -126.5z" />
    <glyph glyph-name="three" unicode="3" horiz-adv-x="561" 
d="M484 531q0 -62 -36 -108t-83 -59q137 -41 137 -178q0 -95 -63.5 -146t-159.5 -51q-64 0 -123 23.5t-96 65.5l36 38q79 -76 183 -76q78 0 125 38t47 109t-53 107.5t-140 36.5h-45v50h34q78 0 132.5 38.5t54.5 106.5t-48 102.5t-113 34.5q-89 0 -161 -69l-36 33
q87 85 197 85q84 0 147.5 -48t63.5 -133z" />
    <glyph glyph-name="four" unicode="4" horiz-adv-x="588" 
d="M55 185v40l343 476h50v-466h99v-50h-99v-185h-50v185h-343zM119 235h279v384z" />
    <glyph glyph-name="five" unicode="5" horiz-adv-x="544" 
d="M272 39q79 0 133.5 48t54.5 126q0 83 -50 128t-129 45q-45 0 -86 -23.5t-63 -56.5h-56l17 395h364v-50h-315l-14 -285q58 70 164 70q91 0 154.5 -59t63.5 -163q0 -93 -65 -159t-174 -66q-124 0 -209 95l37 38q75 -83 173 -83z" />
    <glyph glyph-name="six" unicode="6" horiz-adv-x="618" 
d="M557 216q0 -105 -64.5 -166t-158.5 -61q-113 0 -183.5 101t-70.5 267q0 161 68 258t193 97q109 0 180 -78l-36 -40q-65 69 -144 69q-68 0 -116 -40t-70 -101.5t-24 -138.5q0 -54 4 -102q17 78 69.5 120t129.5 42q90 0 156.5 -62.5t66.5 -164.5zM507 217q0 80 -51.5 129
t-118.5 49q-71 0 -121.5 -49.5t-50.5 -121.5q0 -78 52 -131.5t123 -53.5q72 0 119.5 49.5t47.5 128.5z" />
    <glyph glyph-name="seven" unicode="7" horiz-adv-x="533" 
d="M71 487v214h443v-55q-231 -279 -256 -619l-2 -27h-52l2 24q15 177 79 341t174 286h-340v-164h-48z" />
    <glyph glyph-name="eight" unicode="8" horiz-adv-x="546" 
d="M273 -11q-91 0 -154.5 54.5t-63.5 143.5q0 66 45 116t86 58q-38 14 -75.5 55t-37.5 104q0 87 60.5 139.5t139.5 52.5t139.5 -52.5t60.5 -139.5q0 -63 -37 -104t-75 -55q41 -8 85.5 -58t44.5 -116q0 -89 -63.5 -143.5t-154.5 -54.5zM273 334q-72 0 -120 -40t-48 -109
t49 -108.5t119 -39.5t119 39.5t49 108.5q0 68 -48.5 108.5t-119.5 40.5zM273 664q-55 0 -102.5 -35.5t-47.5 -106.5q0 -66 42.5 -102.5t107.5 -36.5q64 0 107 36.5t43 102.5q0 71 -47.5 106.5t-102.5 35.5z" />
    <glyph glyph-name="nine" unicode="9" horiz-adv-x="618" 
d="M122 484q0 -80 51.5 -129t118.5 -49q71 0 121.5 49.5t50.5 121.5q0 78 -52 131.5t-123 53.5q-72 0 -119.5 -49.5t-47.5 -128.5zM72 485q0 105 64.5 166t158.5 61q113 0 183.5 -101t70.5 -267q0 -161 -68 -258t-193 -97q-109 0 -180 78l36 40q64 -68 144 -68
q68 0 116 39.5t70 101t24 138.5q0 54 -4 102q-17 -78 -69.5 -120t-129.5 -42q-90 0 -156.5 62.5t-66.5 164.5z" />
    <glyph glyph-name="colon" unicode=":" 
d="M144 392q-21 0 -36.5 15t-15.5 36q0 22 15.5 37.5t36.5 15.5q22 0 38 -15.5t16 -37.5q0 -21 -16 -36t-38 -15zM144 -11q-21 0 -36.5 15t-15.5 36q0 22 15.5 37.5t36.5 15.5q22 0 38 -15.5t16 -37.5q0 -21 -16 -36t-38 -15z" />
    <glyph glyph-name="semicolon" unicode=";" 
d="M161 392q-21 0 -36.5 15t-15.5 36q0 22 15.5 37.5t36.5 15.5q22 0 38 -15.5t16 -37.5q0 -21 -16 -36t-38 -15zM103 -125h-59l98 239h70z" />
    <glyph glyph-name="equal" unicode="=" horiz-adv-x="658" 
d="M573 331h-490v43h490v-43zM573 152h-490v43h490v-43z" />
    <glyph glyph-name="question" unicode="?" horiz-adv-x="518" 
d="M254 212h-53v152h14q92 0 143 45t51 112q0 62 -43.5 102t-112.5 40q-111 0 -182 -102l-36 39q81 112 218 112q91 0 150.5 -51.5t59.5 -135.5q0 -79 -54.5 -138.5t-154.5 -71.5v-103zM225 -11q-23 0 -38.5 15.5t-15.5 37.5q0 23 15.5 39t38.5 16t39.5 -16t16.5 -39
q0 -22 -16.5 -37.5t-39.5 -15.5z" />
    <glyph glyph-name="at" unicode="@" horiz-adv-x="1111" 
d="M1011 263q0 -118 -54.5 -196t-130.5 -78q-45 0 -73 29.5t-30 79.5q-60 -109 -189 -109q-103 0 -165 73.5t-62 182.5q0 108 64 182.5t163 74.5q126 0 186 -108v96h48v-375q0 -34 17 -56.5t47 -22.5q62 0 96.5 69.5t34.5 157.5q0 178 -103 289.5t-297 111.5
q-185 0 -300 -119t-115 -296q0 -179 120.5 -292.5t313.5 -113.5q102 0 185 30v-48q-81 -30 -185 -30q-215 0 -348.5 129.5t-133.5 324.5q0 196 129 329.5t334 133.5q106 0 192 -35.5t141.5 -97t85 -142.5t29.5 -174zM545 456q-84 0 -137 -62t-53 -150q0 -91 51 -149t139 -58
q80 0 128.5 59t48.5 148t-48.5 150.5t-128.5 61.5z" />
    <glyph glyph-name="A" unicode="A" horiz-adv-x="691" 
d="M345 657l-171 -444h343zM378 700l273 -700h-49l-66 165h-381l-64 -165h-51l273 700h65z" />
    <glyph glyph-name="B" unicode="B" horiz-adv-x="649" 
d="M90 0v700h256q112 0 173 -46.5t61 -131.5q0 -110 -97 -157q60 -20 88 -68.5t28 -104.5q0 -90 -61 -141t-175 -51h-273zM358 652h-220v-271h221q76 0 124.5 35t48.5 103t-48.5 100.5t-125.5 32.5zM138 48h236q80 0 128.5 37t48.5 110q0 68 -49 103t-124 35h-240v-285z" />
    <glyph glyph-name="C" unicode="C" horiz-adv-x="740" 
d="M658 145l32 -36q-48 -57 -118.5 -88.5t-151.5 -31.5q-146 0 -248 105t-102 256t102.5 256.5t247.5 105.5q150 0 256 -122l-34 -34q-90 108 -219 108t-215.5 -89.5t-86.5 -224.5q0 -132 86.5 -222.5t215.5 -90.5q72 0 133.5 28.5t101.5 79.5z" />
    <glyph glyph-name="D" unicode="D" horiz-adv-x="708" 
d="M90 0v700h172q171 0 273.5 -84.5t102.5 -260.5q0 -173 -99 -264t-277 -91h-172zM271 652h-133v-604h134q64 0 118.5 16.5t100 51.5t71 96t25.5 143q0 80 -25.5 139t-71 92.5t-100 49.5t-119.5 16z" />
    <glyph glyph-name="E" unicode="E" horiz-adv-x="585" 
d="M90 0v700h445v-48h-397v-271h378v-48h-378v-285h397v-48h-445z" />
    <glyph glyph-name="F" unicode="F" horiz-adv-x="563" 
d="M138 0h-48v700h423v-48h-375v-272h353v-48h-353v-332z" />
    <glyph glyph-name="G" unicode="G" horiz-adv-x="759" 
d="M427 289v48h252v-241q-99 -107 -259 -107q-146 0 -248 105t-102 256t102.5 256.5t247.5 105.5q150 0 256 -122l-35 -36q-93 110 -218 110q-130 0 -216 -89.5t-86 -224.5q0 -133 86.5 -223t215.5 -90q128 0 208 74v178h-204z" />
    <glyph glyph-name="H" unicode="H" horiz-adv-x="705" 
d="M567 0v333h-429v-333h-48v700h48v-319h429v319h48v-700h-48z" />
    <glyph glyph-name="I" unicode="I" horiz-adv-x="228" 
d="M90 0v700h48v-700h-48z" />
    <glyph glyph-name="J" unicode="J" horiz-adv-x="506" 
d="M46 84l34 34q52 -84 144 -84q73 0 113.5 50t40.5 141v475h48v-475q0 -111 -53 -173.5t-148 -62.5q-122 0 -179 95z" />
    <glyph glyph-name="K" unicode="K" horiz-adv-x="616" 
d="M90 0v700h48v-442l355 442h62l-240 -298l261 -402h-58l-237 361l-143 -178v-183h-48z" />
    <glyph glyph-name="L" unicode="L" horiz-adv-x="534" 
d="M90 0v700h48v-652h356v-48h-404z" />
    <glyph glyph-name="M" unicode="M" horiz-adv-x="815" 
d="M434 160h-54l-242 470v-630h-48v700h66l251 -489l251 489h67v-700h-48v631z" />
    <glyph glyph-name="N" unicode="N" horiz-adv-x="726" 
d="M90 0v700h61l437 -635v635h48v-700h-61l-437 634v-634h-48z" />
    <glyph glyph-name="O" unicode="O" horiz-adv-x="840" 
d="M420 -11q-146 0 -248 105t-102 256t102.5 256.5t247.5 105.5q147 0 248.5 -105.5t101.5 -256.5t-101.5 -256t-248.5 -105zM420 664q-129 0 -214 -89.5t-85 -224.5q0 -134 85.5 -223.5t213.5 -89.5t213.5 90.5t85.5 222.5q0 135 -85 224.5t-214 89.5z" />
    <glyph glyph-name="P" unicode="P" horiz-adv-x="647" 
d="M322 267h-184v-267h-48v700h232q118 0 186.5 -59t68.5 -157q0 -100 -68 -158.5t-187 -58.5zM337 652h-199v-337h199q89 0 139 42.5t50 125.5q0 81 -50.5 125t-138.5 44z" />
    <glyph glyph-name="Q" unicode="Q" horiz-adv-x="841" 
d="M738 -15l-90 90q-97 -86 -228 -86q-146 0 -248 105t-102 256t102.5 256.5t247.5 105.5q147 0 248.5 -105.5t101.5 -256.5q0 -140 -89 -242l90 -89zM420 37q112 0 194 72l-94 94l33 33l94 -93q72 88 72 207q0 135 -85 224.5t-214 89.5t-214 -89.5t-85 -224.5
q0 -134 85.5 -223.5t213.5 -89.5z" />
    <glyph glyph-name="R" unicode="R" horiz-adv-x="645" 
d="M336 652h-198v-336h198q190 0 190 167q0 82 -49.5 125.5t-140.5 43.5zM339 268h-201v-268h-48v700h232q124 0 189.5 -55t65.5 -162q0 -179 -182 -210l190 -273h-60z" />
    <glyph glyph-name="S" unicode="S" horiz-adv-x="590" 
d="M339 324l-90 16q-84 15 -138.5 61.5t-54.5 123.5q0 86 69 136.5t167 50.5q128 0 229 -103l-34 -37q-84 92 -201 92q-81 0 -130.5 -38.5t-49.5 -98.5q0 -58 45.5 -94t120.5 -49l71 -12q100 -17 153.5 -64.5t53.5 -124.5q0 -83 -65.5 -138.5t-183.5 -55.5q-168 0 -261 113
l34 36q90 -101 231 -101q89 0 142 41.5t53 105.5q0 57 -43.5 91.5t-117.5 48.5z" />
    <glyph glyph-name="T" unicode="T" horiz-adv-x="598" 
d="M40 700h518v-47h-238v-653h-48v653h-232v47z" />
    <glyph glyph-name="U" unicode="U" horiz-adv-x="685" 
d="M557 275v425h48v-427q0 -125 -70.5 -204.5t-192.5 -79.5t-192 79.5t-70 204.5v427h48v-426q0 -102 56.5 -169.5t157.5 -67.5t158 67.5t57 170.5z" />
    <glyph glyph-name="V" unicode="V" horiz-adv-x="648" 
d="M550 700h58l-252 -700h-64l-252 700h58l226 -652z" />
    <glyph glyph-name="W" unicode="W" horiz-adv-x="932" 
d="M629 0l-163 630l-163 -630h-69l-194 700h57l169 -651l168 651h64l168 -651l169 651h57l-194 -700h-69z" />
    <glyph glyph-name="X" unicode="X" horiz-adv-x="635" 
d="M52 700h58l207 -308l208 308h59l-230 -342l241 -358h-59l-219 326l-218 -326h-59l241 358z" />
    <glyph glyph-name="Y" unicode="Y" horiz-adv-x="630" 
d="M532 700h58l-251 -367v-333h-48v333l-251 367h57l218 -319z" />
    <glyph glyph-name="Z" unicode="Z" horiz-adv-x="586" 
d="M52 700h484v-50l-431 -602h428v-48h-483v50l430 602h-428v48z" />
    <glyph glyph-name="bracketleft" unicode="[" horiz-adv-x="412" 
d="M362 701v-48h-166v-799h166v-48h-212v895h212z" />
    <glyph glyph-name="bracketright" unicode="]" horiz-adv-x="412" 
d="M50 653v48h212v-895h-212v48h166v799h-166z" />
    <glyph glyph-name="underscore" unicode="_" horiz-adv-x="500" 
d="M20 -194v47h460v-47h-460z" />
    <glyph glyph-name="a" unicode="a" horiz-adv-x="513" 
d="M243 231q-66 0 -100.5 -28t-34.5 -73t33.5 -69t84.5 -24t95.5 30.5t73.5 73.5v61q-93 29 -152 29zM397 80q-76 -91 -178 -91q-68 0 -113.5 37.5t-45.5 104.5q0 70 48.5 109t127.5 39q52 0 159 -31v64q0 67 -40.5 104.5t-104.5 37.5q-88 0 -134 -75l-36 34q60 89 171 89
q87 0 139.5 -49t52.5 -139v-314h-46v80z" />
    <glyph glyph-name="b" unicode="b" horiz-adv-x="601" 
d="M316 502q99 0 162 -74.5t63 -182.5q0 -109 -63 -182.5t-162 -73.5q-62 0 -113 28.5t-79 80.5v-98h-48v700h48v-306q28 50 79 79t113 29zM310 38q84 0 133 58.5t49 148.5q0 87 -51 148t-131 61t-133 -61.5t-53 -147.5q0 -87 53 -147t133 -60z" />
    <glyph glyph-name="c" unicode="c" horiz-adv-x="536" 
d="M456 105l35 -33q-72 -83 -184 -83q-105 0 -176 74.5t-71 181.5t70.5 182t175.5 75q111 0 177 -80l-36 -35q-55 66 -140 66q-81 0 -138.5 -61t-57.5 -147t57 -147t139 -61q90 0 149 68z" />
    <glyph glyph-name="d" unicode="d" horiz-adv-x="601" 
d="M291 454q-80 0 -131 -61t-51 -148q0 -90 49 -148.5t133 -58.5q80 0 133 60t53 147q0 86 -53 147.5t-133 61.5zM285 -11q-99 0 -162 73.5t-63 182.5q0 108 63 182.5t162 74.5q62 0 113 -29t79 -79v306h48v-700h-48v98q-28 -52 -79 -80.5t-113 -28.5z" />
    <glyph glyph-name="e" unicode="e" horiz-adv-x="554" 
d="M446 107l36 -33q-78 -85 -188 -85q-107 0 -170.5 73t-63.5 183q0 114 59 185.5t167 71.5q101 0 154.5 -72.5t53.5 -184.5v-11h-383q2 -88 52 -142.5t132 -54.5q86 0 151 70zM439 282q-5 75 -45.5 123t-107.5 48q-77 0 -121.5 -46t-52.5 -125h327z" />
    <glyph glyph-name="f" unicode="f" horiz-adv-x="310" 
d="M36 490h83v42q0 169 169 169h12v-46h-11q-64 0 -93 -30t-29 -93v-42h121v-46h-121v-444h-48v444h-83v46z" />
    <glyph glyph-name="g" unicode="g" horiz-adv-x="591" 
d="M287 453q-78 0 -128.5 -56.5t-50.5 -140.5q0 -86 49.5 -141t129.5 -55q81 0 131.5 55t50.5 141t-50.5 141.5t-131.5 55.5zM515 490v-440q0 -117 -56 -186t-174 -69q-124 0 -205 97l39 36q64 -83 164 -83q184 0 184 205v61q-27 -49 -76.5 -74t-110.5 -25q-94 0 -157 69
t-63 174q0 107 62 177t158 70q132 0 187 -105v93h48z" />
    <glyph glyph-name="h" unicode="h" horiz-adv-x="564" 
d="M494 0h-48v239q0 104 -33 159.5t-118 55.5q-80 0 -125.5 -60t-45.5 -155v-239h-48v700h48v-295q54 97 176 97q194 0 194 -257v-245z" />
    <glyph glyph-name="i" unicode="i" horiz-adv-x="200" 
d="M100 622q-19 0 -32 13t-13 32t13 32t32 13t32 -13t13 -32t-13 -32t-32 -13zM76 0v490h48v-490h-48z" />
    <glyph glyph-name="j" unicode="j" horiz-adv-x="207" 
d="M107 622q-19 0 -32 13t-13 32t13 32t32 13t32 -13t13 -32t-13 -32t-32 -13zM83 -48v538h48v-555q0 -75 -34 -107.5t-104 -32.5q-28 0 -38 1v47h31q57 0 77 25t20 84z" />
    <glyph glyph-name="k" unicode="k" horiz-adv-x="482" 
d="M76 0v700h48v-492l262 282h65l-190 -206l201 -284h-59l-177 249l-102 -112v-137h-48z" />
    <glyph glyph-name="l" unicode="l" horiz-adv-x="200" 
d="M76 0v700h48v-700h-48z" />
    <glyph glyph-name="m" unicode="m" horiz-adv-x="863" 
d="M123 490v-81q45 93 161 93q103 0 159 -100q52 100 164 100q97 0 141.5 -54.5t44.5 -160.5v-287h-48v285q0 169 -137 169q-64 0 -106.5 -49.5t-42.5 -142.5v-262h-48v279q0 80 -33.5 127.5t-99.5 47.5q-75 0 -114 -52t-39 -140v-262h-49v490h47z" />
    <glyph glyph-name="n" unicode="n" horiz-adv-x="564" 
d="M494 0h-48v239q0 104 -33 159.5t-118 55.5q-81 0 -126 -60t-45 -155v-239h-48v490h47v-85q54 97 177 97q194 0 194 -257v-245z" />
    <glyph glyph-name="o" unicode="o" horiz-adv-x="614" 
d="M307 -11q-105 0 -176 74.5t-71 181.5t71 182t176 75t176 -75t71 -182t-71 -181.5t-176 -74.5zM307 454q-80 0 -138 -60.5t-58 -148.5t58 -148t138 -60q81 0 138.5 60.5t57.5 147.5q0 88 -57 148.5t-139 60.5z" />
    <glyph glyph-name="p" unicode="p" horiz-adv-x="601" 
d="M310 37q80 0 131 61t51 148q0 90 -49 148.5t-133 58.5q-80 0 -133 -60t-53 -147q0 -86 53 -147.5t133 -61.5zM316 502q99 0 162 -73.5t63 -182.5q0 -108 -63 -182.5t-162 -74.5q-62 0 -113 29t-79 79v-291h-48v684h48v-97q28 52 79 80.5t113 28.5z" />
    <glyph glyph-name="q" unicode="q" horiz-adv-x="601" 
d="M285 -11q-99 0 -162 74.5t-63 182.5q0 109 63 182.5t162 73.5q62 0 113 -28.5t79 -80.5v97h48v-684h-48v291q-28 -50 -79 -79t-113 -29zM291 453q-84 0 -133 -58.5t-49 -148.5q0 -87 51 -148t131 -61t133 61.5t53 147.5q0 87 -53 147t-133 60z" />
    <glyph glyph-name="r" unicode="r" horiz-adv-x="345" 
d="M315 502v-49h-18q-79 0 -126 -60.5t-47 -153.5v-239h-48v490h45v-96q24 50 72 79t107 29h15z" />
    <glyph glyph-name="s" unicode="s" horiz-adv-x="464" 
d="M277 215l-77 18q-134 32 -134 135q0 64 48.5 99t116.5 35q94 0 165 -69l-36 -38q-58 60 -134 60q-50 0 -80.5 -21.5t-30.5 -62.5q0 -70 86 -90l82 -19q136 -32 136 -133q0 -62 -49.5 -101t-129.5 -39q-122 0 -190 80l32 37q61 -70 158 -70q61 0 95.5 23.5t34.5 65.5
q0 68 -93 90z" />
    <glyph glyph-name="t" unicode="t" horiz-adv-x="336" 
d="M35 490h84v137h48v-137h122v-46h-122v-288q0 -60 19.5 -85.5t76.5 -25.5h28v-46q-20 -1 -35 -1q-69 0 -103 32t-34 107v307h-84v46z" />
    <glyph glyph-name="u" unicode="u" horiz-adv-x="564" 
d="M70 490h48v-238q0 -104 33 -159.5t118 -55.5q80 0 125.5 60t45.5 155v238h48v-490h-45v86q-54 -97 -179 -97q-194 0 -194 257v244z" />
    <glyph glyph-name="v" unicode="v" horiz-adv-x="485" 
d="M211 0l-186 490h53l165 -449l165 449h52l-186 -490h-63z" />
    <glyph glyph-name="w" unicode="w" horiz-adv-x="770" 
d="M519 0l-134 449l-134 -449h-74l-147 490h51l133 -449l133 449h76l133 -449l133 449h51l-147 -490h-74z" />
    <glyph glyph-name="x" unicode="x" horiz-adv-x="458" 
d="M89 490l140 -208l140 208h58l-163 -239l174 -251h-59l-150 221l-151 -221h-58l173 251l-163 239h59z" />
    <glyph glyph-name="y" unicode="y" horiz-adv-x="507" 
d="M208 -194h-52l71 189l-202 495h57l174 -440l172 440h54z" />
    <glyph glyph-name="z" unicode="z" horiz-adv-x="475" 
d="M70 490h348v-46l-298 -398h310v-46h-370v49l298 395h-288v46z" />
    <glyph glyph-name="braceleft" unicode="{" horiz-adv-x="482" 
d="M267 546v-582q0 -110 86 -110h79v-48h-71q-74 0 -108 43.5t-34 110.5v272h-119v44h119v274q0 66 34 108.5t108 42.5h71v-48h-79q-86 0 -86 -107z" />
    <glyph glyph-name="braceright" unicode="}" horiz-adv-x="482" 
d="M215 -36v582q0 107 -86 107h-79v48h71q74 0 108 -42.5t34 -108.5v-274h119v-44h-119v-272q0 -67 -34 -110.5t-108 -43.5h-71v48h79q86 0 86 110z" />
    <glyph glyph-name="nbspace" unicode="&#xa0;" 
 />
    <glyph glyph-name="guillemotleft" unicode="&#xab;" horiz-adv-x="545" 
d="M60 244l138 246h54l-139 -247l138 -243h-54zM283 244l138 246h54l-139 -247l138 -243h-54z" />
    <glyph glyph-name="uni00AD" unicode="&#xad;" 
d="M270 233h-250v59h250v-59z" />
    <glyph glyph-name="plusminus" unicode="&#xb1;" horiz-adv-x="656" 
d="M573 -43h-490v43h490v-43zM83 305v43h220v222h47v-222h223v-43h-223v-225h-47v225h-220z" />
    <glyph glyph-name="onesuperior" unicode="&#xb9;" horiz-adv-x="309" 
d="M279 308h-242v44h98v287q-39 -30 -100 -33v41q76 6 104 53h42v-348h98v-44z" />
    <glyph glyph-name="guillemotright" unicode="&#xbb;" horiz-adv-x="545" 
d="M347 490l138 -246l-137 -244h-54l138 243l-139 247h54zM124 490l138 -246l-137 -244h-54l138 243l-139 247h54z" />
    <glyph glyph-name="Agrave" unicode="&#xc0;" horiz-adv-x="691" 
d="M345 657l-171 -444h343zM378 700l273 -700h-49l-66 165h-381l-64 -165h-51l273 700h65zM390 769h-55l-114 103h78z" />
    <glyph glyph-name="Acircumflex" unicode="&#xc2;" horiz-adv-x="691" 
d="M345 657l-171 -444h343zM378 700l273 -700h-49l-66 165h-381l-64 -165h-51l273 700h65zM209 769l103 103h66l104 -103h-62l-74 68l-76 -68h-61z" />
    <glyph glyph-name="Egrave" unicode="&#xc8;" horiz-adv-x="585" 
d="M90 0v700h445v-48h-397v-271h378v-48h-378v-285h397v-48h-445zM370 769h-55l-114 103h78z" />
    <glyph glyph-name="Eacute" unicode="&#xc9;" horiz-adv-x="585" 
d="M90 0v700h445v-48h-397v-271h378v-48h-378v-285h397v-48h-445zM336 769h-55l91 103h78z" />
    <glyph glyph-name="Ecircumflex" unicode="&#xca;" horiz-adv-x="585" 
d="M90 0v700h445v-48h-397v-271h378v-48h-378v-285h397v-48h-445zM189 769l103 103h66l104 -103h-62l-74 68l-76 -68h-61z" />
    <glyph glyph-name="Icircumflex" unicode="&#xce;" horiz-adv-x="228" 
d="M90 0v700h48v-700h-48zM-22 769l103 103h66l104 -103h-62l-74 68l-76 -68h-61z" />
    <glyph glyph-name="Ocircumflex" unicode="&#xd4;" horiz-adv-x="840" 
d="M420 -11q-146 0 -248 105t-102 256t102.5 256.5t247.5 105.5q147 0 248.5 -105.5t101.5 -256.5t-101.5 -256t-248.5 -105zM420 664q-129 0 -214 -89.5t-85 -224.5q0 -134 85.5 -223.5t213.5 -89.5t213.5 90.5t85.5 222.5q0 135 -85 224.5t-214 89.5zM284 769l103 103h66
l104 -103h-62l-74 68l-76 -68h-61z" />
    <glyph glyph-name="multiply" unicode="&#xd7;" horiz-adv-x="560" 
d="M84 412l31 30l165 -165l164 163l32 -30l-164 -164l165 -166l-30 -31l-167 165l-165 -165l-32 31l167 166z" />
    <glyph glyph-name="Ugrave" unicode="&#xd9;" horiz-adv-x="685" 
d="M557 275v425h48v-427q0 -125 -70.5 -204.5t-192.5 -79.5t-192 79.5t-70 204.5v427h48v-426q0 -102 56.5 -169.5t157.5 -67.5t158 67.5t57 170.5zM387 769h-55l-114 103h78z" />
    <glyph glyph-name="Ucircumflex" unicode="&#xdb;" horiz-adv-x="685" 
d="M557 275v425h48v-427q0 -125 -70.5 -204.5t-192.5 -79.5t-192 79.5t-70 204.5v427h48v-426q0 -102 56.5 -169.5t157.5 -67.5t158 67.5t57 170.5zM206 769l103 103h66l104 -103h-62l-74 68l-76 -68h-61z" />
    <glyph glyph-name="agrave" unicode="&#xe0;" horiz-adv-x="513" 
d="M243 231q-66 0 -100.5 -28t-34.5 -73t33.5 -69t84.5 -24t95.5 30.5t73.5 73.5v61q-93 29 -152 29zM397 80q-76 -91 -178 -91q-68 0 -113.5 37.5t-45.5 104.5q0 70 48.5 109t127.5 39q52 0 159 -31v64q0 67 -40.5 104.5t-104.5 37.5q-88 0 -134 -75l-36 34q60 89 171 89
q87 0 139.5 -49t52.5 -139v-314h-46v80zM318 569h-52l-114 131h70z" />
    <glyph glyph-name="acircumflex" unicode="&#xe2;" horiz-adv-x="513" 
d="M243 231q-66 0 -100.5 -28t-34.5 -73t33.5 -69t84.5 -24t95.5 30.5t73.5 73.5v61q-93 29 -152 29zM397 80q-76 -91 -178 -91q-68 0 -113.5 37.5t-45.5 104.5q0 70 48.5 109t127.5 39q52 0 159 -31v64q0 67 -40.5 104.5t-104.5 37.5q-88 0 -134 -75l-36 34q60 89 171 89
q87 0 139.5 -49t52.5 -139v-314h-46v80zM233 700h67l97 -131h-49l-82 92l-81 -92h-49z" />
    <glyph glyph-name="egrave" unicode="&#xe8;" horiz-adv-x="554" 
d="M446 107l36 -33q-78 -85 -188 -85q-107 0 -170.5 73t-63.5 183q0 114 59 185.5t167 71.5q101 0 154.5 -72.5t53.5 -184.5v-11h-383q2 -88 52 -142.5t132 -54.5q86 0 151 70zM439 282q-5 75 -45.5 123t-107.5 48q-77 0 -121.5 -46t-52.5 -125h327zM357 569h-52l-114 131
h70z" />
    <glyph glyph-name="eacute" unicode="&#xe9;" horiz-adv-x="554" 
d="M446 107l36 -33q-78 -85 -188 -85q-107 0 -170.5 73t-63.5 183q0 114 59 185.5t167 71.5q101 0 154.5 -72.5t53.5 -184.5v-11h-383q2 -88 52 -142.5t132 -54.5q86 0 151 70zM439 282q-5 75 -45.5 123t-107.5 48q-77 0 -121.5 -46t-52.5 -125h327zM283 569h-52l96 131h70z
" />
    <glyph glyph-name="ecircumflex" unicode="&#xea;" horiz-adv-x="554" 
d="M446 107l36 -33q-78 -85 -188 -85q-107 0 -170.5 73t-63.5 183q0 114 59 185.5t167 71.5q101 0 154.5 -72.5t53.5 -184.5v-11h-383q2 -88 52 -142.5t132 -54.5q86 0 151 70zM439 282q-5 75 -45.5 123t-107.5 48q-77 0 -121.5 -46t-52.5 -125h327zM242 700h67l97 -131h-49
l-82 92l-81 -92h-49z" />
    <glyph glyph-name="icircumflex" unicode="&#xee;" horiz-adv-x="200" 
d="M76 0v490h48v-490h-48zM68 700h67l97 -131h-49l-82 92l-81 -92h-49z" />
    <glyph glyph-name="ocircumflex" unicode="&#xf4;" horiz-adv-x="614" 
d="M307 -11q-105 0 -176 74.5t-71 181.5t71 182t176 75t176 -75t71 -182t-71 -181.5t-176 -74.5zM307 454q-80 0 -138 -60.5t-58 -148.5t58 -148t138 -60q81 0 138.5 60.5t57.5 147.5q0 88 -57 148.5t-139 60.5zM275 700h67l97 -131h-49l-82 92l-81 -92h-49z" />
    <glyph glyph-name="ugrave" unicode="&#xf9;" horiz-adv-x="564" 
d="M70 490h48v-238q0 -104 33 -159.5t118 -55.5q80 0 125.5 60t45.5 155v238h48v-490h-45v86q-54 -97 -179 -97q-194 0 -194 257v244zM363 569h-52l-114 131h70z" />
    <glyph glyph-name="ucircumflex" unicode="&#xfb;" horiz-adv-x="564" 
d="M70 490h48v-238q0 -104 33 -159.5t118 -55.5q80 0 125.5 60t45.5 155v238h48v-490h-45v86q-54 -97 -179 -97q-194 0 -194 257v244zM248 700h67l97 -131h-49l-82 92l-81 -92h-49z" />
    <glyph glyph-name="endash" unicode="&#x2013;" horiz-adv-x="500" 
d="M480 239h-460v46h460v-46z" />
    <glyph glyph-name="emdash" unicode="&#x2014;" horiz-adv-x="1000" 
d="M980 240h-960v46h960v-46z" />
    <glyph glyph-name="quoteright" unicode="&#x2019;" horiz-adv-x="291" 
d="M116 471h-45l94 229h55z" />
    <glyph glyph-name="quotedblleft" unicode="&#x201c;" horiz-adv-x="456" 
d="M340 471l-104 229h55l94 -229h-45zM175 471l-104 229h55l94 -229h-45z" />
    <glyph glyph-name="quotedblright" unicode="&#x201d;" horiz-adv-x="456" 
d="M281 471h-45l94 229h55zM116 471h-45l94 229h55z" />
    <glyph glyph-name="ellipsis" unicode="&#x2026;" horiz-adv-x="808" 
d="M660 -11q-23 0 -38.5 15.5t-15.5 37.5q0 23 15.5 39t38.5 16t39.5 -16t16.5 -39q0 -22 -16.5 -37.5t-39.5 -15.5zM403 -11q-23 0 -38.5 15.5t-15.5 37.5q0 23 15.5 39t38.5 16t39.5 -16t16.5 -39q0 -22 -16.5 -37.5t-39.5 -15.5zM146 -11q-23 0 -38.5 15.5t-15.5 37.5
q0 23 15.5 39t38.5 16t39.5 -16t16.5 -39q0 -22 -16.5 -37.5t-39.5 -15.5z" />
    <glyph glyph-name="LeftArrow" unicode="&#x2190;" horiz-adv-x="813" 
d="M361 -22l-311 312l311 312l36 -35l-254 -253h620v-48h-620l254 -253z" />
    <glyph glyph-name="UpArrow" unicode="&#x2191;" horiz-adv-x="724" 
d="M50 402l312 311l312 -311l-35 -36l-253 254v-620h-48v620l-253 -254z" />
    <glyph glyph-name="NorthWestArrow" unicode="&#x2196;" horiz-adv-x="672" 
d="M80 80v441h441v-49h-358l439 -438l-34 -34l-438 438v-358h-50z" />
    <glyph glyph-name="minus" unicode="&#x2212;" horiz-adv-x="631" 
d="M73 268h484v-43h-484v43z" />
    <glyph glyph-name="a.ordn" horiz-adv-x="391" 
d="M170 334q-51 0 -85.5 29t-34.5 80t36 80.5t98 29.5q15 0 32 -2t30 -4.5t23.5 -5t16.5 -4.5l7 -2v45q0 45 -27.5 68t-75.5 23q-10 0 -19 -1.5t-17 -4.5t-15 -6t-13 -7t-10.5 -7.5t-8 -7l-6 -6l-3.5 -3.5l-1 -2l-28 31q45 55 122 55q68 0 106.5 -33.5t38.5 -103.5v-233h-40
v43q-48 -51 -126 -51zM293 430v67q-53 15 -104 15q-46 0 -70 -19.5t-24 -50.5t23 -48t61 -17q67 0 114 53z" />
    <glyph glyph-name="A.ss01" horiz-adv-x="654" 
d="M260 652l-115 -439h363l-118 439h-130zM425 700l189 -700h-48l-46 165h-386l-43 -165h-51l189 700h196z" />
    <glyph glyph-name="G.ss01" horiz-adv-x="771" 
d="M631 0v53q-90 -64 -211 -64q-146 0 -248 105t-102 256t102.5 256.5t247.5 105.5q160 0 261 -117l-36 -37q-88 106 -222 106q-131 0 -218 -89.5t-87 -224.5q0 -132 87.5 -222.5t217.5 -90.5q128 0 208 74v178h-204v48h252v-337h-48z" />
    <glyph glyph-name="I.ss01" horiz-adv-x="511" 
d="M90 652v48h331v-48h-141v-604h141v-48h-331v48h142v604h-142z" />
    <glyph glyph-name="J.ss01" horiz-adv-x="553" 
d="M55 238h48v-19q0 -79 42 -130.5t123 -51.5q47 0 79 18t48.5 52t23 72.5t6.5 88.5v384h-256v48h304v-438q0 -273 -205 -273q-101 0 -157 64.5t-56 165.5v19z" />
    <glyph glyph-name="K.ss01" horiz-adv-x="595" 
d="M90 0v700h48v-312h137l208 312h64l-232 -338l240 -362h-62l-221 340h-134v-340h-48z" />
    <glyph glyph-name="M.ss01" horiz-adv-x="839" 
d="M374 0l-143 652h-93v-652h-48v700h179l142 -652h12l143 652h183v-700h-48v652h-98l-142 -652h-87z" />
    <glyph glyph-name="Q.ss01" horiz-adv-x="840" 
d="M420 -11q-146 0 -248 105t-102 256t102.5 256.5t247.5 105.5q147 0 248.5 -106t101.5 -256q0 -151 -101.5 -256t-248.5 -105zM615 106l-192 192l37 37l192 -191q70 86 70 206q0 135 -85 224.5t-214 89.5q-131 0 -218 -89.5t-87 -224.5q0 -132 87.5 -222.5t217.5 -90.5
q112 0 192 69z" />
    <glyph glyph-name="V.ss01" horiz-adv-x="668" 
d="M428 0h-188l-200 700h51l186 -652h114l186 652h51z" />
    <glyph glyph-name="W.ss01" horiz-adv-x="970" 
d="M412 0h-172l-200 700h51l186 -652h98l84 297l-101 355h51l76 -266l76 266h51l-102 -355l85 -297h98l186 652h51l-200 -700h-172l-73 255z" />
    <glyph glyph-name="X.ss01" horiz-adv-x="615" 
d="M55 700h51l131 -317h140l132 317h51l-140 -338l150 -362h-51l-140 335h-143l-140 -335h-51l150 362z" />
    <glyph glyph-name="Agrave.ss01" horiz-adv-x="654" 
d="M260 652l-115 -439h363l-118 439h-130zM425 700l189 -700h-48l-46 165h-386l-43 -165h-51l189 700h196zM372 769h-55l-114 103h78z" />
    <glyph glyph-name="Acircumflex.ss01" horiz-adv-x="654" 
d="M260 652l-115 -439h363l-118 439h-130zM425 700l189 -700h-48l-46 165h-386l-43 -165h-51l189 700h196zM191 769l103 103h66l104 -103h-62l-74 68l-76 -68h-61z" />
    <glyph glyph-name="Icircumflex.ss01" horiz-adv-x="511" 
d="M90 652v48h331v-48h-141v-604h141v-48h-331v48h142v604h-142zM120 769l103 103h66l104 -103h-62l-74 68l-76 -68h-61z" />
    <glyph glyph-name="a.ss01" horiz-adv-x="506" 
d="M112 442v48h318v-490h-211q-71 0 -117.5 42.5t-46.5 104.5q0 65 45.5 107.5t118.5 42.5h163v145h-270zM222 48h160v201h-160q-54 0 -86.5 -28t-32.5 -72t32 -72.5t87 -28.5z" />
    <glyph glyph-name="e.ss01" horiz-adv-x="482" 
d="M131 334q0 -49 35.5 -84t92.5 -35q54 0 89.5 35t35.5 84q0 48 -35.5 84t-89.5 36q-57 0 -92.5 -35.5t-35.5 -84.5zM432 334q0 -72 -50 -119.5t-126 -47.5q-80 0 -132 57v-176h288v-48h-336v319q0 84 52 133.5t128 49.5q77 0 126.5 -46.5t49.5 -121.5z" />
    <glyph glyph-name="f.ss01" horiz-adv-x="421" 
d="M121 490v74q0 65 39 106.5t103 41.5q63 0 103 -41t40 -99h-50q0 41 -26 67t-67 26q-43 0 -68.5 -26t-25.5 -76v-73h236v-46h-236v-444h-48v444h-85v46h85z" />
    <glyph glyph-name="g.ss01" horiz-adv-x="544" 
d="M485 -194h-436v51h385l-302 253q-74 63 -74 166q0 89 58 151.5t145 62.5h228v-46h-99q77 -66 77 -168q0 -89 -58.5 -151t-143.5 -62l220 -185v-72zM268 442q-67 0 -114 -49t-47 -116q0 -70 46 -118t110 -48q66 0 111 47.5t45 118.5q0 65 -44 115t-107 50z" />
    <glyph glyph-name="h.ss01" horiz-adv-x="534" 
d="M76 0v700h48v-210h334v-490h-48v444h-286v-444h-48z" />
    <glyph glyph-name="j.ss01" horiz-adv-x="204" 
d="M104 622q-19 0 -32 13t-13 32t13 32t32 13t32 -13t13 -32t-13 -32t-32 -13zM-53 -194v48h133v636h48v-684h-181z" />
    <glyph glyph-name="k.ss01" horiz-adv-x="493" 
d="M124 700v-429h147l115 219h54l-127 -241l140 -249h-54l-126 223h-149v-223h-48v700h48z" />
    <glyph glyph-name="l.ss01" horiz-adv-x="200" 
d="M76 0v700h48v-700h-48z" />
    <glyph glyph-name="m.ss01" horiz-adv-x="816" 
d="M76 0v490h664v-490h-48v444h-260v-444h-48v444h-260v-444h-48z" />
    <glyph glyph-name="n.ss01" horiz-adv-x="532" 
d="M76 0v490h380v-490h-48v444h-284v-444h-48z" />
    <glyph glyph-name="r.ss01" horiz-adv-x="352" 
d="M316 490v-46h-192v-444h-48v490h240z" />
    <glyph glyph-name="s.ss01" horiz-adv-x="463" 
d="M362 134l-195 116q-89 53 -89 129q0 58 43.5 90.5t106.5 32.5q89 0 161 -70l-36 -37q-52 59 -130 59q-42 0 -69.5 -19.5t-27.5 -54.5q0 -51 75 -96l217 -128q0 -66 -49.5 -116.5t-138.5 -50.5q-112 0 -180 80l35 38q66 -70 145 -70q60 0 96 31t36 66z" />
    <glyph glyph-name="t.ss01" horiz-adv-x="383" 
d="M338 0h-191v444h-112v46h112v137h48v-137h143v-46h-143v-396h143v-48z" />
    <glyph glyph-name="u.ss01" horiz-adv-x="521" 
d="M76 0v490h48v-442h273v442h48v-490h-369z" />
    <glyph glyph-name="y.ss01" horiz-adv-x="518" 
d="M235 -194v163l-210 521h52l182 -450l182 450h52l-210 -519v-165h-48z" />
    <glyph glyph-name="agrave.ss01" horiz-adv-x="506" 
d="M112 442v48h318v-490h-211q-71 0 -117.5 42.5t-46.5 104.5q0 65 45.5 107.5t118.5 42.5h163v145h-270zM222 48h160v201h-160q-54 0 -86.5 -28t-32.5 -72t32 -72.5t87 -28.5zM354 569h-52l-114 131h70z" />
    <glyph glyph-name="acircumflex.ss01" horiz-adv-x="506" 
d="M112 442v48h318v-490h-211q-71 0 -117.5 42.5t-46.5 104.5q0 65 45.5 107.5t118.5 42.5h163v145h-270zM222 48h160v201h-160q-54 0 -86.5 -28t-32.5 -72t32 -72.5t87 -28.5zM239 700h67l97 -131h-49l-82 92l-81 -92h-49z" />
    <glyph glyph-name="eacute.ss01" horiz-adv-x="482" 
d="M131 334q0 -49 35.5 -84t92.5 -35q54 0 89.5 35t35.5 84q0 48 -35.5 84t-89.5 36q-57 0 -92.5 -35.5t-35.5 -84.5zM432 334q0 -72 -50 -119.5t-126 -47.5q-80 0 -132 57v-176h288v-48h-336v319q0 84 52 133.5t128 49.5q77 0 126.5 -46.5t49.5 -121.5zM220 569h-52l96 131
h70z" />
    <glyph glyph-name="egrave.ss01" horiz-adv-x="482" 
d="M131 334q0 -49 35.5 -84t92.5 -35q54 0 89.5 35t35.5 84q0 48 -35.5 84t-89.5 36q-57 0 -92.5 -35.5t-35.5 -84.5zM432 334q0 -72 -50 -119.5t-126 -47.5q-80 0 -132 57v-176h288v-48h-336v319q0 84 52 133.5t128 49.5q77 0 126.5 -46.5t49.5 -121.5zM334 569h-52
l-114 131h70z" />
    <glyph glyph-name="ecircumflex.ss01" horiz-adv-x="482" 
d="M131 334q0 -49 35.5 -84t92.5 -35q54 0 89.5 35t35.5 84q0 48 -35.5 84t-89.5 36q-57 0 -92.5 -35.5t-35.5 -84.5zM432 334q0 -72 -50 -119.5t-126 -47.5q-80 0 -132 57v-176h288v-48h-336v319q0 84 52 133.5t128 49.5q77 0 126.5 -46.5t49.5 -121.5zM219 700h67l97 -131
h-49l-82 92l-81 -92h-49z" />
    <glyph glyph-name="ugrave.ss01" horiz-adv-x="521" 
d="M76 0v490h48v-442h273v442h48v-490h-369zM343 569h-52l-114 131h70z" />
    <glyph glyph-name="ucircumflex.ss01" horiz-adv-x="521" 
d="M76 0v490h48v-442h273v442h48v-490h-369zM228 700h67l97 -131h-49l-82 92l-81 -92h-49z" />
    <glyph glyph-name="a.ordn.ss01" horiz-adv-x="390" 
d="M92 663v40h238v-361h-152q-56 0 -92 32.5t-36 79.5q0 46 37.5 78t90.5 32h109v99h-195zM287 524h-110q-36 0 -59 -21.5t-23 -49.5q0 -29 23 -50t59 -21h110v142z" />
    <glyph glyph-name="comma.ss01" 
d="M44 -120l102 234l55 -25l-103 -233z" />
    <glyph glyph-name="colon.ss01" 
d="M143 384q-24 0 -41 16.5t-17 40.5q0 26 17 43.5t41 17.5q26 0 44 -17.5t18 -43.5q0 -24 -18 -40.5t-44 -16.5zM143 -11q-24 0 -41 16.5t-17 40.5q0 26 17 43.5t41 17.5q26 0 44 -17.5t18 -43.5q0 -24 -18 -40.5t-44 -16.5z" />
    <glyph glyph-name="semicolon.ss01" 
d="M152 384q-24 0 -41 16.5t-17 40.5q0 26 17 43.5t41 17.5q26 0 44 -17.5t18 -43.5q0 -24 -18 -40.5t-44 -16.5zM44 -120l102 234l55 -25l-103 -233z" />
    <glyph glyph-name="period.ss01" 
d="M143 -11q-24 0 -41 16.5t-17 40.5q0 26 17 43.5t41 17.5q26 0 44 -17.5t18 -43.5q0 -24 -18 -40.5t-44 -16.5z" />
    <glyph glyph-name="ellipsis.ss01" horiz-adv-x="801" 
d="M654 -11q-24 0 -41 16.5t-17 40.5q0 26 17 43.5t41 17.5q26 0 44 -17.5t18 -43.5q0 -24 -18 -40.5t-44 -16.5zM398 -11q-24 0 -41 16.5t-17 40.5q0 26 17 43.5t41 17.5q26 0 44 -17.5t18 -43.5q0 -24 -18 -40.5t-44 -16.5zM143 -11q-24 0 -41 16.5t-17 40.5q0 26 17 43.5
t41 17.5q26 0 44 -17.5t18 -43.5q0 -24 -18 -40.5t-44 -16.5z" />
    <glyph glyph-name="exclam.ss01" horiz-adv-x="291" 
d="M121 210v491h48v-491h-48zM146 -11q-22 0 -36.5 15t-14.5 36q0 20 15 34.5t36 14.5q20 0 35 -14.5t15 -34.5q0 -21 -15 -36t-35 -15z" />
    <glyph glyph-name="question.ss01" horiz-adv-x="576" 
d="M246 289h-9v48h7q92 0 147 52.5t55 115.5q0 67 -47.5 113t-116.5 46q-110 0 -177 -102l-36 40q82 110 213 110q89 0 151.5 -59.5t62.5 -144.5q0 -84 -67 -151.5t-183 -67.5zM254 -11q-24 0 -41 16.5t-17 40.5q0 26 17 43.5t41 17.5q26 0 44 -17.5t18 -43.5
q0 -24 -18 -40.5t-44 -16.5z" />
    <glyph glyph-name="quoteright.ss01" 
d="M172 713l57 -25l-105 -227l-46 22z" />
    <glyph glyph-name="quotedblleft.ss01" horiz-adv-x="451" 
d="M118 461l-57 25l105 227l46 -22zM279 455l-57 25l105 227l46 -22z" />
    <glyph glyph-name="quotedblright.ss01" horiz-adv-x="452" 
d="M172 713l57 -25l-105 -227l-46 22zM334 707l57 -25l-105 -227l-46 22z" />
    <glyph glyph-name="ampersand.ss01" horiz-adv-x="716" 
d="M530 0h-230q-90 0 -148.5 56t-58.5 147q0 50 32.5 97.5t80.5 69.5q-39 24 -61 64.5t-22 85.5q0 78 53.5 129t135.5 52h43v-48h-43q-65 0 -102 -38t-37 -94q0 -54 32.5 -93.5t88.5 -39.5h188v313h48v-313h146v-48h-146v-340zM294 340q-70 0 -112 -43t-42 -106
q0 -59 45 -101t115 -42h182v292h-188z" />
    <glyph glyph-name="zero.ss01" horiz-adv-x="615" 
d="M307 -11q-63 0 -111.5 30.5t-77 82.5t-42.5 115t-14 133q0 97 24 176t81 132.5t140 53.5q82 0 139.5 -53.5t82 -133t24.5 -175.5q0 -95 -24.5 -174.5t-82 -133t-139.5 -53.5zM306 662q-93 0 -144 -84.5t-51 -227.5q0 -78 15 -139l348 318q-50 133 -168 133zM306 39
q93 0 144.5 85.5t51.5 225.5q0 70 -14 129l-346 -316q52 -124 164 -124z" />
    <glyph glyph-name="one.ss01" horiz-adv-x="580" 
d="M101 50h186v601h-186v50h236v-651h176v-50h-412v50z" />
    <glyph glyph-name="two.ss01" horiz-adv-x="638" 
d="M307 295q-84 0 -142.5 60.5t-58.5 146.5q0 89 63.5 149.5t154.5 60.5q90 0 152.5 -60.5t62.5 -149.5q0 -57 -29.5 -106.5t-83.5 -100.5l-259 -245h375v-50h-438v55l255 244q-24 -4 -52 -4zM325 663q-70 0 -118.5 -46.5t-48.5 -115.5t48.5 -116t117.5 -47t117 47t48 116
t-47.5 115.5t-116.5 46.5z" />
    <glyph glyph-name="three.ss01" horiz-adv-x="628" 
d="M496 701v-50l-195 -244q110 -9 167.5 -66t57.5 -145q0 -89 -66.5 -148.5t-166.5 -59.5q-123 0 -211 100l40 42q39 -42 79 -63.5t97 -21.5q78 0 123.5 44.5t45.5 121.5q0 64 -52 104.5t-140 40.5h-47v39l204 256h-327v50h391z" />
    <glyph glyph-name="four.ss01" horiz-adv-x="606" 
d="M80 185v115l291 401h60l-297 -407v-59h236v178h50v-178h120v-50h-120v-185h-50v185h-290z" />
    <glyph glyph-name="five.ss01" horiz-adv-x="633" 
d="M306 39q79 0 133.5 47.5t54.5 124.5q0 83 -50 129t-129 46q-45 0 -86 -23.5t-63 -56.5h-56v395h393v-50h-341v-285q58 70 164 70q91 0 154.5 -59t63.5 -163q0 -93 -66 -159t-176 -66q-113 0 -201 98l37 38q77 -86 168 -86z" />
    <glyph glyph-name="six.ss01" horiz-adv-x="661" 
d="M570 216q0 -105 -69 -166t-168 -61q-105 0 -171.5 66t-66.5 168q0 95 84 216l181 261h61l-207 -291q58 33 125 33q94 0 162.5 -62.5t68.5 -163.5zM330 390q-76 0 -128 -48.5t-52 -128.5q0 -78 52 -126.5t128 -48.5q77 0 129.5 48.5t52.5 126.5q0 80 -52.5 128.5
t-129.5 48.5z" />
    <glyph glyph-name="seven.ss01" horiz-adv-x="577" 
d="M87 470v231h430v-56l-279 -645h-62l288 651h-330v-181h-47z" />
    <glyph glyph-name="eight.ss01" horiz-adv-x="586" 
d="M293 -11q-87 0 -147.5 55.5t-60.5 139.5q0 60 32 108t85 73q-48 22 -74.5 66.5t-26.5 101.5q0 80 56.5 129.5t135.5 49.5t136 -49.5t57 -129.5q0 -57 -27 -101t-75 -67q53 -25 85.5 -73t32.5 -108q0 -84 -60.5 -139.5t-148.5 -55.5zM435 526q0 61 -42 99.5t-100 38.5
q-59 0 -100.5 -38.5t-41.5 -99.5q0 -59 39 -99.5t103 -40.5q63 0 102.5 40.5t39.5 99.5zM447 187q0 64 -44 107t-112 43q-69 0 -112.5 -42.5t-43.5 -107.5q0 -64 43 -106t113 -42q69 0 112.5 42t43.5 106z" />
    <glyph glyph-name="nine.ss01" horiz-adv-x="653" 
d="M95 484q0 105 69 166.5t168 61.5q105 0 171.5 -66.5t66.5 -168.5q0 -95 -84 -216l-181 -261h-61l207 291q-50 -33 -125 -33q-94 0 -162.5 62.5t-68.5 163.5zM335 310q76 0 128 48.5t52 128.5q0 78 -52 127t-128 49q-77 0 -129.5 -49t-52.5 -127q0 -80 52.5 -128.5
t129.5 -48.5z" />
    <glyph glyph-name="onesuperior.ss01" horiz-adv-x="317" 
d="M287 308h-252v44h103v304h-97v44h143v-348h103v-44z" />
    <glyph glyph-name="A.ss02" horiz-adv-x="724" 
d="M362 596l-176 -382h351zM362 701l322 -701h-48l-77 166h-395l-76 -166h-48z" />
    <glyph glyph-name="K.ss02" horiz-adv-x="568" 
d="M452 700h65l-314 -337l325 -363h-65l-325 362v-362h-48v700h48v-338z" />
    <glyph glyph-name="M.ss02" horiz-adv-x="815" 
d="M677 534l-269 -422l-270 422v-534h-48v701l317 -496l318 496v-701h-48v534z" />
    <glyph glyph-name="N.ss02" horiz-adv-x="728" 
d="M638 0l-500 567v-567h-48v701l500 -569v568h48v-700z" />
    <glyph glyph-name="Q.ss02" horiz-adv-x="853" 
d="M747 -26l-100 100q-98 -85 -227 -85q-146 0 -248 105t-102 256t102.5 256.5t247.5 105.5q147 0 248.5 -105.5t101.5 -256.5q0 -137 -86 -239l99 -99zM420 664q-129 0 -214 -89.5t-85 -224.5q0 -134 85.5 -223.5t213.5 -89.5t213.5 90.5t85.5 222.5q0 135 -85 224.5
t-214 89.5z" />
    <glyph glyph-name="R.ss02" horiz-adv-x="644" 
d="M339 652h-201v-336h201q89 0 139.5 42t50.5 125q0 81 -51 125t-139 44zM529 0l-217 268h-174v-268h-48v700h232q125 0 190.5 -54t65.5 -162q0 -190 -202 -213l218 -271h-65z" />
    <glyph glyph-name="S.ss02" horiz-adv-x="542" 
d="M314 316l-77 29q-82 31 -128 74.5t-46 111.5q0 83 63.5 132t151.5 49q128 0 198 -102l-36 -35q-30 42 -66.5 65.5t-97.5 23.5q-73 0 -117.5 -35.5t-44.5 -92.5q0 -56 39.5 -89t112.5 -60l62 -23q88 -32 131 -76.5t43 -119.5q0 -76 -60.5 -127.5t-162.5 -51.5
q-77 0 -138.5 33t-100.5 90l35 36q76 -111 207 -111q79 0 124 36.5t45 94.5q0 56 -36.5 90t-100.5 58z" />
    <glyph glyph-name="V.ss02" horiz-adv-x="645" 
d="M327 -17h-9l-278 717h57l225 -592l226 592h57z" />
    <glyph glyph-name="W.ss02" horiz-adv-x="925" 
d="M656 -17h-9l-185 530l-184 -530h-9l-229 717h57l178 -580l187 555l188 -555l178 580h57z" />
    <glyph glyph-name="Z.ss02" horiz-adv-x="660" 
d="M50 0l466 652h-440v48h534l-466 -652h441v-48h-535z" />
    <glyph glyph-name="Agrave.ss02" horiz-adv-x="724" 
d="M362 596l-176 -382h351zM362 701l322 -701h-48l-77 166h-395l-76 -166h-48zM407 769h-55l-114 103h78z" />
    <glyph glyph-name="Acircumflex.ss02" horiz-adv-x="724" 
d="M362 596l-176 -382h351zM362 701l322 -701h-48l-77 166h-395l-76 -166h-48zM226 769l103 103h66l104 -103h-62l-74 68l-76 -68h-61z" />
    <glyph glyph-name="a.ss02" horiz-adv-x="610" 
d="M299 454q-83 0 -135.5 -61.5t-52.5 -147.5q0 -90 51 -149t137 -59q79 0 133 61t54 147q0 85 -54 147t-133 62zM291 -11q-103 0 -167 73.5t-64 182.5q0 107 65.5 182t165.5 75q65 0 117 -28.5t80 -79.5v96h46v-490h-46v98q-29 -52 -80 -80.5t-117 -28.5z" />
    <glyph glyph-name="k.ss02" horiz-adv-x="459" 
d="M372 0l-248 252v-252h-48v700h48v-448l238 238h67l-238 -237l248 -253h-67z" />
    <glyph glyph-name="v.ss02" horiz-adv-x="450" 
d="M229 0h-8l-202 490h53l153 -376l153 376h53z" />
    <glyph glyph-name="w.ss02" horiz-adv-x="692" 
d="M185 0l-161 490h50l120 -371l137 371h28l138 -373l121 373h50l-161 -490h-16l-146 392l-145 -392h-15z" />
    <glyph glyph-name="z.ss02" horiz-adv-x="507" 
d="M56 9l309 433h-300v48h386v-16l-305 -426h296v-48h-386v9z" />
    <glyph glyph-name="agrave.ss02" horiz-adv-x="610" 
d="M299 454q-83 0 -135.5 -61.5t-52.5 -147.5q0 -90 51 -149t137 -59q79 0 133 61t54 147q0 85 -54 147t-133 62zM291 -11q-103 0 -167 73.5t-64 182.5q0 107 65.5 182t165.5 75q65 0 117 -28.5t80 -79.5v96h46v-490h-46v98q-29 -52 -80 -80.5t-117 -28.5zM393 569h-52
l-114 131h70z" />
    <glyph glyph-name="acircumflex.ss02" horiz-adv-x="610" 
d="M299 454q-83 0 -135.5 -61.5t-52.5 -147.5q0 -90 51 -149t137 -59q79 0 133 61t54 147q0 85 -54 147t-133 62zM291 -11q-103 0 -167 73.5t-64 182.5q0 107 65.5 182t165.5 75q65 0 117 -28.5t80 -79.5v96h46v-490h-46v98q-29 -52 -80 -80.5t-117 -28.5zM278 700h67
l97 -131h-49l-82 92l-81 -92h-49z" />
    <glyph glyph-name="question.ss02" horiz-adv-x="515" 
d="M254 427l44 17q90 35 90 115q0 49 -36 76.5t-92 27.5q-83 0 -152 -86l-33 38q28 40 77.5 68.5t107.5 28.5q80 0 130 -42.5t50 -108.5q0 -57 -31 -96t-100 -69l-46 -20q-78 -33 -78 -84q0 -32 19 -50.5t49 -18.5q36 0 61 29l35 -37q-39 -41 -98 -41q-50 0 -84 31t-34 80
q0 96 121 142zM249 -11q-24 0 -41 16.5t-17 40.5q0 26 17 43.5t41 17.5q26 0 44 -17.5t18 -43.5q0 -24 -18 -40.5t-44 -16.5z" />
    <glyph glyph-name="ampersand.ss02" horiz-adv-x="679" 
d="M323 664q-46 0 -75.5 -26t-29.5 -70q0 -59 43 -117l25 -33l50 32q83 53 83 114q0 43 -26 71.5t-70 28.5zM118 167q0 -57 36.5 -94.5t102.5 -37.5q72 0 192 103l-173 219l-69 -45q-89 -58 -89 -145zM557 0l-79 99q-38 -32 -65 -52t-71.5 -39t-85.5 -19q-90 0 -138 52
t-48 124q0 63 31.5 109t91.5 85l54 36q-46 60 -61.5 96.5t-15.5 80.5q0 58 43 99t107 41q70 0 109.5 -42.5t39.5 -102.5q0 -42 -25 -79.5t-62 -62.5l-64 -43l167 -212l94 82l31 -40l-94 -80l103 -132h-62z" />
    <glyph glyph-name="zero.ss02" horiz-adv-x="611" 
d="M305 -11q-63 0 -111.5 30.5t-77 82.5t-42.5 115t-14 133q0 97 24 176t81 132.5t140 53.5q82 0 139.5 -53.5t82 -133t24.5 -175.5q0 -95 -24.5 -174.5t-82 -133t-139.5 -53.5zM305 39q93 0 144 85.5t51 225.5q0 142 -51 227t-144 85t-143.5 -85t-50.5 -227
q0 -141 50.5 -226t143.5 -85z" />
    <glyph glyph-name="one.ss02" horiz-adv-x="317" 
d="M15 495v60l182 157v-712h-50v604z" />
    <glyph glyph-name="two.ss02" horiz-adv-x="553" 
d="M96 551l-36 36q71 125 200 125q90 0 145 -52.5t55 -141.5q0 -55 -23.5 -100t-83.5 -117l-207 -251h342v-50h-448l255 308q36 44 48.5 60t33 46.5t27 53.5t6.5 49q0 58 -41.5 102t-108.5 44q-97 0 -164 -112z" />
    <glyph glyph-name="three.ss02" horiz-adv-x="572" 
d="M83 651v50h396l-207 -307q115 -5 175 -58t60 -139q0 -92 -65 -150t-166 -58q-129 0 -216 99l40 42q41 -43 80.5 -65.5t96.5 -22.5q80 0 128 42.5t48 112.5q0 72 -53.5 108t-146.5 36h-74l209 310h-305z" />
    <glyph glyph-name="four.ss02" horiz-adv-x="576" 
d="M25 185l403 526v-476h108v-50h-108v-185h-51v185h-352zM124 235h253v330z" />
    <glyph glyph-name="five.ss02" horiz-adv-x="543" 
d="M123 301l-45 15l95 385h286v-50h-247l-66 -262q5 6 15 14t44.5 22t74.5 14q92 0 160 -61t68 -164q0 -93 -66 -159t-176 -66q-121 0 -206 95l37 38q75 -83 173 -83q78 0 131 47.5t53 124.5q0 81 -50 129.5t-128 48.5q-33 0 -60.5 -9t-44 -22t-28 -26t-15.5 -22z" />
    <glyph glyph-name="six.ss02" horiz-adv-x="600" 
d="M545 217q0 -105 -69 -166.5t-168 -61.5q-105 0 -171.5 66.5t-66.5 168.5q0 95 84 216l181 260h60l-205 -297q55 40 126 40q93 0 161 -62.5t68 -163.5zM307 395q-78 0 -130.5 -49t-52.5 -130q0 -80 53 -129.5t130 -49.5q78 0 131 49.5t53 129.5t-53 129.5t-131 49.5z" />
    <glyph glyph-name="seven.ss02" horiz-adv-x="499" 
d="M40 651v50h439l-282 -701h-55l264 651h-366z" />
    <glyph glyph-name="eight.ss02" horiz-adv-x="557" 
d="M278 -11q-92 0 -155 61.5t-63 155.5q0 72 37 123.5t97 71.5q-40 19 -63.5 57.5t-23.5 82.5q0 71 50 121t121 50t121 -50t50 -121q0 -44 -24 -82.5t-64 -57.5q60 -20 98 -71.5t38 -123.5q0 -93 -63.5 -155t-155.5 -62zM401 543q0 53 -36 87t-87 34t-87 -34t-36 -87
q0 -52 36.5 -84.5t86.5 -32.5q49 0 86 32.5t37 84.5zM448 204q0 71 -50.5 119.5t-118.5 48.5q-72 0 -121 -48t-49 -120q0 -73 49 -120t121 -47q71 0 120 47t49 120z" />
    <glyph glyph-name="nine.ss02" horiz-adv-x="600" 
d="M55 484q0 105 69 166.5t168 61.5q105 0 171.5 -66.5t66.5 -168.5q0 -95 -84 -216l-181 -261h-60l205 298q-55 -40 -126 -40q-93 0 -161 62.5t-68 163.5zM293 306q78 0 130.5 49t52.5 130q0 80 -53 129.5t-130 49.5q-78 0 -131 -49.5t-53 -129.5t53 -129.5t131 -49.5z" />
    <glyph glyph-name="dollar.ss02" horiz-adv-x="542" 
d="M285 -113h-44v104q-129 16 -201 121l35 36q76 -111 207 -111q79 0 124 36.5t45 94.5q0 56 -36.5 90t-100.5 58l-77 29q-82 31 -128 74.5t-46 111.5q0 73 51 121t127 58v105h44v-103q123 -3 191 -102l-36 -35q-30 42 -66.5 65.5t-97.5 23.5q-73 0 -117.5 -35.5
t-44.5 -92.5q0 -56 39.5 -89t112.5 -60l62 -23q88 -32 131 -76.5t43 -119.5q0 -76 -59.5 -127.5t-157.5 -51.5v-102z" />
    <glyph glyph-name="onesuperior.ss02" horiz-adv-x="229" 
d="M93 308v301l-68 -53v56l108 92h6v-396h-46z" />
    <glyph glyph-name="A.ss03" horiz-adv-x="691" 
d="M345 657l-153 -396h306zM378 700l273 -700h-49l-85 213h-344l-82 -213h-51l273 700h65z" />
    <glyph glyph-name="C.ss03" horiz-adv-x="642" 
d="M556 149l35 -40q-83 -120 -227 -120q-130 0 -212 101t-82 260t82.5 260.5t211.5 101.5q134 0 219 -118l-37 -39q-75 109 -180 109q-111 0 -178 -87t-67 -227q0 -137 67.5 -225t177.5 -88q118 0 190 112z" />
    <glyph glyph-name="D.ss03" horiz-adv-x="668" 
d="M90 0v700h157q173 0 262 -82.5t89 -262.5q0 -178 -85.5 -266.5t-265.5 -88.5h-157zM256 652h-118v-604h119q293 0 293 307q0 297 -294 297z" />
    <glyph glyph-name="G.ss03" horiz-adv-x="726" 
d="M588 0v145q-19 -62 -78 -109t-140 -47q-141 0 -220.5 102t-79.5 259t81 259.5t223 102.5q81 0 145.5 -34.5t103.5 -95.5l-35 -38q-31 55 -88 87.5t-127 32.5q-119 0 -187 -88.5t-68 -225.5q0 -132 68.5 -222.5t186.5 -90.5q95 0 148.5 68t62.5 182h-195v48h247v-335h-48z
" />
    <glyph glyph-name="J.ss03" horiz-adv-x="547" 
d="M418 212v488h49v-488q0 -103 -53 -163t-153 -60q-95 0 -150.5 60.5t-55.5 150.5v17h48v-17q0 -80 45.5 -124.5t112.5 -44.5q157 0 157 181z" />
    <glyph glyph-name="M.ss03" horiz-adv-x="839" 
d="M384 0l-246 638v-638h-48v700h76l254 -659l254 659h75v-700h-48v635l-245 -635h-72z" />
    <glyph glyph-name="O.ss03" horiz-adv-x="740" 
d="M370 -11q-141 0 -220.5 102t-79.5 259t80 259.5t220 102.5q142 0 221 -102.5t79 -259.5t-79 -259t-221 -102zM373 664q-122 0 -188 -86.5t-66 -227.5t66 -227t188 -86q121 0 184.5 87t63.5 226q0 142 -63 228t-185 86z" />
    <glyph glyph-name="Q.ss03" horiz-adv-x="744" 
d="M355 0q-134 0 -209.5 101t-75.5 254q0 154 78.5 255.5t216.5 101.5q140 0 218 -101t78 -256q0 -102 -35 -183.5t-102 -126.5l150 9v-54h-319zM368 664q-124 0 -187 -84.5t-63 -224.5q0 -137 63.5 -222t186.5 -85t184 84.5t61 222.5q0 141 -61 225t-184 84z" />
    <glyph glyph-name="R.ss03" horiz-adv-x="638" 
d="M339 652h-201v-296h201q93 0 142 33.5t49 114.5q0 148 -191 148zM322 308h-184v-308h-48v700h232q129 0 192.5 -45t63.5 -150q0 -142 -123 -180q79 -44 98 -170l23 -155h-52l-22 159q-11 79 -53.5 114t-126.5 35z" />
    <glyph glyph-name="Agrave.ss03" horiz-adv-x="691" 
d="M345 657l-153 -396h306zM378 700l273 -700h-49l-85 213h-344l-82 -213h-51l273 700h65zM390 769h-55l-114 103h78z" />
    <glyph glyph-name="Acircumflex.ss03" horiz-adv-x="691" 
d="M345 657l-153 -396h306zM378 700l273 -700h-49l-85 213h-344l-82 -213h-51l273 700h65zM209 769l103 103h66l104 -103h-62l-74 68l-76 -68h-61z" />
    <glyph glyph-name="Ocircumflex.ss03" horiz-adv-x="740" 
d="M370 -11q-141 0 -220.5 102t-79.5 259t80 259.5t220 102.5q142 0 221 -102.5t79 -259.5t-79 -259t-221 -102zM373 664q-122 0 -188 -86.5t-66 -227.5t66 -227t188 -86q121 0 184.5 87t63.5 226q0 142 -63 228t-185 86zM234 769l103 103h66l104 -103h-62l-74 68l-76 -68
h-61z" />
    <glyph glyph-name="a.ss03" horiz-adv-x="566" 
d="M404 249l-167 -26q-116 -19 -116 -101q0 -39 31.5 -63.5t83.5 -24.5q74 0 121 51t47 134v30zM405 85q-17 -40 -65.5 -68t-109.5 -28q-74 0 -116.5 37t-42.5 96q0 61 43.5 98.5t124.5 49.5l165 25v34q0 61 -36 92.5t-96 31.5q-105 0 -131 -86h-52q11 59 60 97t123 38
q81 0 130.5 -46t49.5 -128v-215q0 -38 11.5 -54t43.5 -16v-45q-19 -1 -26 -1q-35 0 -55.5 24.5t-20.5 63.5z" />
    <glyph glyph-name="i.ss03" horiz-adv-x="200" 
d="M60 619v81h80v-81h-80zM76 0v490h48v-490h-48z" />
    <glyph glyph-name="j.ss03" horiz-adv-x="203" 
d="M64 619v81h80v-81h-80zM80 -43v533h48v-550q0 -75 -34 -107.5t-104 -32.5q-28 0 -38 1v47h31q57 0 77 25t20 84z" />
    <glyph glyph-name="y.ss03" horiz-adv-x="503" 
d="M478 490l-245 -615q-32 -80 -112 -80l-61 1v48l51 -1q60 0 79 53l37 99l-202 495h54l175 -445l174 445h50z" />
    <glyph glyph-name="agrave.ss03" horiz-adv-x="566" 
d="M404 249l-167 -26q-116 -19 -116 -101q0 -39 31.5 -63.5t83.5 -24.5q74 0 121 51t47 134v30zM405 85q-17 -40 -65.5 -68t-109.5 -28q-74 0 -116.5 37t-42.5 96q0 61 43.5 98.5t124.5 49.5l165 25v34q0 61 -36 92.5t-96 31.5q-105 0 -131 -86h-52q11 59 60 97t123 38
q81 0 130.5 -46t49.5 -128v-215q0 -38 11.5 -54t43.5 -16v-45q-19 -1 -26 -1q-35 0 -55.5 24.5t-20.5 63.5zM348 569h-52l-114 131h70z" />
    <glyph glyph-name="acircumflex.ss03" horiz-adv-x="566" 
d="M404 249l-167 -26q-116 -19 -116 -101q0 -39 31.5 -63.5t83.5 -24.5q74 0 121 51t47 134v30zM405 85q-17 -40 -65.5 -68t-109.5 -28q-74 0 -116.5 37t-42.5 96q0 61 43.5 98.5t124.5 49.5l165 25v34q0 61 -36 92.5t-96 31.5q-105 0 -131 -86h-52q11 59 60 97t123 38
q81 0 130.5 -46t49.5 -128v-215q0 -38 11.5 -54t43.5 -16v-45q-19 -1 -26 -1q-35 0 -55.5 24.5t-20.5 63.5zM233 700h67l97 -131h-49l-82 92l-81 -92h-49z" />
    <glyph glyph-name="icircumflex.ss03" horiz-adv-x="200" 
d="M76 0v490h48v-490h-48zM68 700h67l97 -131h-49l-82 92l-81 -92h-49z" />
    <glyph glyph-name="a.ordn.ss03" horiz-adv-x="391" 
d="M172 334q-57 0 -89.5 29.5t-32.5 75.5q0 92 132 109l111 14v26q0 83 -91 83q-39 0 -64 -21t-29 -53h-46q3 46 40.5 80t97.5 34q64 0 99.5 -33.5t35.5 -91.5v-165q0 -25 9.5 -33t29.5 -8l11 1v-39q-10 -2 -28 -2q-24 0 -41 13t-19 38q-18 -26 -52.5 -41.5t-73.5 -15.5z
M95 439q0 -26 22 -44t55 -18q56 0 88.5 30.5t32.5 84.5v32l-118 -18q-38 -6 -59 -23.5t-21 -43.5z" />
    <glyph glyph-name="comma.ss03" 
d="M100 0v94h90v-122q0 -85 -79 -103v46q33 12 33 62v23h-44z" />
    <glyph glyph-name="semicolon.ss03" 
d="M100 396v94h90v-94h-90zM100 0v94h90v-122q0 -85 -79 -103v46q33 12 33 62v23h-44z" />
    <glyph glyph-name="colon.ss03" 
d="M100 396v94h90v-94h-90zM100 0v94h90v-94h-90z" />
    <glyph glyph-name="period.ss03" 
d="M100 0v94h90v-94h-90z" />
    <glyph glyph-name="ellipsis.ss03" horiz-adv-x="758" 
d="M568 0v94h90v-94h-90zM334 0v94h90v-94h-90zM100 0v94h90v-94h-90z" />
    <glyph glyph-name="exclam.ss03" 
d="M122 211v490h48v-490h-48zM100 0v94h90v-94h-90z" />
    <glyph glyph-name="question.ss03" horiz-adv-x="510" 
d="M386 374l-50 -40q-42 -34 -59.5 -58.5t-18.5 -64.5h-53v4q0 50 22 81t68 66l39 30q77 59 77 134q0 65 -45.5 101.5t-111.5 36.5q-59 0 -102.5 -30.5t-54.5 -93.5h-52q13 82 74.5 127t135.5 45q89 0 149.5 -51t60.5 -136q0 -88 -79 -151zM191 0v94h90v-94h-90z" />
    <glyph glyph-name="quotedblleft.ss03" horiz-adv-x="457" 
d="M357 566v-94h-90v122q0 85 79 103v-46q-33 -12 -33 -62v-23h44zM190 566v-94h-90v122q0 85 79 103v-46q-33 -12 -33 -62v-23h44z" />
    <glyph glyph-name="quotedblright.ss03" horiz-adv-x="457" 
d="M267 607v94h90v-122q0 -85 -79 -103v46q33 12 33 62v23h-44zM100 607v94h90v-122q0 -85 -79 -103v46q33 12 33 62v23h-44z" />
    <glyph glyph-name="zero.ss03" horiz-adv-x="615" 
d="M307 -11q-63 0 -111.5 30.5t-77 82.5t-42.5 115t-14 133q0 97 24 176t81 132.5t140 53.5q82 0 139.5 -53.5t82 -133t24.5 -175.5q0 -95 -24.5 -174.5t-82 -133t-139.5 -53.5zM307 39q93 0 144 85.5t51 225.5q0 142 -51 227t-144 85t-143.5 -85t-50.5 -227
q0 -141 50.5 -226t143.5 -85z" />
    <glyph glyph-name="one.ss03" horiz-adv-x="354" 
d="M20 539v40q84 0 122.5 31t51.5 91h40v-701h-51v539h-163z" />
    <glyph glyph-name="two.ss03" horiz-adv-x="525" 
d="M127 529h-51q7 80 65.5 131.5t135.5 51.5q91 0 146 -46.5t55 -134.5q0 -123 -157 -215l-59 -35q-138 -82 -140 -231h358v-50h-415v8q0 121 44 193t142 130l39 23q138 81 138 178q0 56 -39.5 93t-110.5 37q-62 0 -104 -39t-47 -94z" />
    <glyph glyph-name="three.ss03" horiz-adv-x="587" 
d="M151 542h-51q11 75 67.5 122.5t130.5 47.5q86 0 148.5 -47.5t62.5 -133.5q0 -60 -35.5 -107t-83.5 -60q137 -43 137 -176q0 -95 -62.5 -147t-163.5 -52q-86 0 -148.5 50.5t-72.5 132.5h51q9 -56 57 -94.5t118 -38.5q71 0 120.5 40t49.5 107q0 71 -53 108t-140 37h-40v50
h29q77 0 132 39t55 103q0 69 -47 104.5t-112 35.5q-62 0 -100.5 -34.5t-48.5 -86.5z" />
    <glyph glyph-name="four.ss03" horiz-adv-x="588" 
d="M55 185v40l343 476h50v-466h99v-50h-99v-185h-50v185h-343zM119 235h279v384z" />
    <glyph glyph-name="five.ss03" horiz-adv-x="616" 
d="M100 159h51q10 -50 53.5 -85t101.5 -35q79 0 132 47.5t53 124.5q0 83 -50 129t-129 46q-45 0 -86 -23.5t-63 -56.5h-56l18 395h363v-50h-315l-14 -285q58 70 164 70q91 0 154.5 -59t63.5 -163q0 -93 -64.5 -159t-174.5 -66q-74 0 -132.5 47.5t-69.5 122.5z" />
    <glyph glyph-name="six.ss03" horiz-adv-x="595" 
d="M501 550h-45q-11 53 -51.5 82.5t-93.5 29.5q-68 0 -114 -40t-65 -100.5t-21 -138.5q0 -68 2 -92q18 68 70.5 110t130.5 42q90 0 155.5 -62.5t65.5 -164.5q0 -105 -65 -166t-159 -61q-113 0 -182 100.5t-69 267.5q0 163 63 259t186 96q67 0 125.5 -44t66.5 -118zM485 217
q0 81 -50.5 129.5t-117.5 48.5q-70 0 -119.5 -49.5t-49.5 -121.5q0 -79 49 -133t120 -54q72 0 120 50.5t48 129.5z" />
    <glyph glyph-name="seven.ss03" horiz-adv-x="503" 
d="M40 651v50h443v-55q-231 -279 -256 -619l-2 -27h-54l2 24q15 177 79 341t174 286h-386z" />
    <glyph glyph-name="eight.ss03" horiz-adv-x="587" 
d="M293 -11q-87 0 -150 55.5t-63 139.5q0 59 34 107.5t88 73.5q-49 23 -77.5 67.5t-28.5 100.5q0 79 59 129t138 50q80 0 139 -49.5t59 -129.5q0 -56 -29 -100.5t-78 -67.5q54 -25 88.5 -73.5t34.5 -107.5q0 -84 -63 -139.5t-151 -55.5zM440 526q0 60 -44 99t-103 39
t-103 -39t-44 -99q0 -59 41.5 -99.5t105.5 -40.5t105.5 40.5t41.5 99.5zM452 187q0 64 -46 107t-115 43t-115 -43t-46 -107t45.5 -106t115.5 -42q69 0 115 42t46 106z" />
    <glyph glyph-name="nine.ss03" horiz-adv-x="595" 
d="M110 484q0 -81 50.5 -129.5t117.5 -48.5q70 0 119.5 49.5t49.5 121.5q0 79 -49 133t-120 54q-72 0 -120 -50.5t-48 -129.5zM94 151h45q11 -53 51.5 -82.5t93.5 -29.5q68 0 114 40t65 100.5t21 138.5q0 68 -2 92q-18 -68 -70.5 -110t-130.5 -42q-90 0 -155.5 62.5
t-65.5 164.5q0 105 65 166t159 61q113 0 182 -100.5t69 -267.5q0 -163 -63 -259t-186 -96q-67 0 -125.5 44t-66.5 118z" />
    <glyph glyph-name="onesuperior.ss03" horiz-adv-x="250" 
d="M114 308v299h-89v31q49 3 68 15.5t30 46.5h37v-392h-46z" />
    </font>
</defs>
</svg>
